<svg width="11" height="19" viewBox="0 0 11 19" fill="none" xmlns="http://www.w3.org/2000/svg">
<path d="M8.39036 18.2924C8.51336 18.4197 8.66048 18.5213 8.82315 18.5912C8.98583 18.661 9.16079 18.6978 9.33782 18.6994C9.51486 18.7009 9.69043 18.6672 9.8543 18.6001C10.0182 18.5331 10.167 18.4341 10.2922 18.3089C10.4174 18.1837 10.5164 18.0348 10.5835 17.871C10.6505 17.7071 10.6842 17.5315 10.6827 17.3545C10.6812 17.1774 10.6444 17.0025 10.5745 16.8398C10.5046 16.6771 10.403 16.53 10.2757 16.407L8.39036 18.2924ZM1.33305 9.34971L0.390381 8.40704C0.14042 8.65708 0 8.99616 0 9.34971C0 9.70326 0.14042 10.0423 0.390381 10.2924L1.33305 9.34971ZM10.2757 2.29239C10.403 2.1694 10.5046 2.02227 10.5745 1.8596C10.6444 1.69693 10.6812 1.52197 10.6827 1.34493C10.6842 1.16789 10.6505 0.992318 10.5835 0.828457C10.5164 0.664595 10.4174 0.515725 10.2922 0.390536C10.167 0.265346 10.0182 0.166342 9.8543 0.0993006C9.69043 0.0322596 9.51486 -0.00147563 9.33782 6.2785e-05C9.16079 0.0016012 8.98583 0.0383828 8.82315 0.108261C8.66048 0.17814 8.51336 0.279715 8.39036 0.407062L10.2757 2.29239ZM10.2757 16.407L2.27571 8.40704L0.390381 10.2924L8.39036 18.2924L10.2757 16.407ZM2.27571 10.2924L10.2757 2.29239L8.39036 0.407062L0.390381 8.40704L2.27571 10.2924Z" fill="#0D1628"/>
</svg>
