<svg width="16" height="17" viewBox="0 0 16 17" fill="none" xmlns="http://www.w3.org/2000/svg">
<path d="M15.3493 8.36147C15.4828 8.22808 15.5579 8.04712 15.558 7.85838C15.5581 7.66965 15.4832 7.4886 15.3498 7.35507C15.2164 7.22154 15.0355 7.14647 14.8467 7.14637C14.658 7.14627 14.477 7.22115 14.3434 7.35454L15.3493 8.3604V8.36147ZM5.29277 15.6425V16.354V15.6436V15.6425ZM12.8352 5.8452L13.3376 6.34867L12.8362 5.8452H12.8352ZM4.27943 10.3668L3.7781 9.86334H3.77597L4.27943 10.3668ZM10.8192 4.83934C10.9437 4.70435 11.0113 4.52641 11.0076 4.34276C11.004 4.15911 10.9295 3.98399 10.7996 3.85404C10.6698 3.72408 10.4948 3.64937 10.3111 3.64554C10.1275 3.64171 9.94949 3.70905 9.81437 3.83347L10.8192 4.83934ZM14.3434 7.35454L7.80903 13.8889L8.8149 14.8959L15.3493 8.3604L14.3434 7.35454ZM7.80903 13.8889C7.47859 14.2194 7.08629 14.4825 6.65455 14.6613C6.22281 14.8401 5.76007 14.9322 5.29277 14.9321V16.354C6.6133 16.354 7.8805 15.8292 8.8149 14.8959L7.80903 13.8889ZM5.29277 14.9321C4.34983 14.9321 3.44423 14.5577 2.77757 13.89L1.77063 14.8959C2.23321 15.3583 2.78234 15.7251 3.38667 15.9753C3.991 16.2255 4.63869 16.3541 5.29277 16.354V14.9321ZM2.77757 13.89C2.44714 13.5596 2.18505 13.1673 2.00624 12.7355C1.82743 12.3038 1.73541 11.841 1.73543 11.3737H0.3125C0.3125 12.6953 0.8373 13.9615 1.7717 14.8959L2.77757 13.89ZM1.73543 11.3737C1.73543 10.4308 2.10983 9.5252 2.77757 8.85854L1.77063 7.85267C0.836981 8.78662 0.31249 10.0531 0.3125 11.3737H1.73543ZM2.77757 8.85854L9.31197 2.32307L8.30717 1.3172L1.7717 7.85267L2.77757 8.85854ZM9.31197 2.32307C9.71303 1.92307 10.256 1.69801 10.8224 1.69801V0.276138C10.3551 0.275914 9.89242 0.367739 9.46067 0.546367C9.02893 0.724996 8.63767 0.986928 8.30717 1.3172L9.31197 2.32307ZM10.8224 1.69801C11.3877 1.69801 11.9317 1.922 12.3317 2.32307L13.3376 1.3172C12.6704 0.65044 11.7656 0.275969 10.8224 0.276138V1.69801ZM12.3317 2.32307C12.7317 2.72414 12.9568 3.26707 12.9568 3.8324H14.3786C14.3786 2.88947 14.0042 1.98494 13.3376 1.3172L12.3317 2.32307ZM12.9568 3.8324C12.9568 4.3988 12.7328 4.94174 12.3317 5.3428L13.3376 6.34867C14.0042 5.68094 14.3786 4.7764 14.3786 3.8324H12.9568ZM12.3317 5.34174L5.7909 11.8772L6.79463 12.8831L13.3376 6.34867L12.3317 5.34174ZM5.78877 11.8772C5.65562 12.0107 5.47492 12.0859 5.28637 12.0863V13.5081C5.85212 13.508 6.39465 13.2832 6.79463 12.8831L5.78877 11.8772ZM5.28637 12.0863C5.19282 12.0862 5.10021 12.0677 5.01382 12.0319C4.92742 11.996 4.84896 11.9434 4.7829 11.8772L3.77597 12.8841C3.97415 13.0824 4.20945 13.2396 4.46843 13.3469C4.72741 13.4541 5.00499 13.5093 5.2853 13.5092V12.0873L5.28637 12.0863ZM4.7829 11.8772C4.71667 11.8111 4.66411 11.7327 4.62823 11.6463C4.59236 11.5599 4.57387 11.4673 4.57383 11.3737H3.15197C3.15161 11.6542 3.20653 11.9319 3.3136 12.1911C3.42068 12.4502 3.57779 12.6857 3.77597 12.8841L4.78183 11.8783L4.7829 11.8772ZM4.57383 11.3737C4.57383 11.1849 4.6485 11.0047 4.7829 10.8713L3.77703 9.86547C3.37693 10.2655 3.15209 10.808 3.15197 11.3737H4.57383ZM4.7829 10.8713L10.8192 4.83934L9.81437 3.83347L3.77703 9.86547L4.7829 10.8713Z" fill="#B7B7B9"/>
</svg>
