<svg width="9" height="15" viewBox="0 0 9 15" fill="none" xmlns="http://www.w3.org/2000/svg">
<path d="M0.865983 12.2071C0.764105 12.3055 0.682844 12.4232 0.626942 12.5533C0.571039 12.6835 0.541613 12.8234 0.540382 12.9651C0.539152 13.1067 0.56614 13.2472 0.619773 13.3783C0.673406 13.5093 0.752609 13.6284 0.852761 13.7286C0.952914 13.8287 1.07201 13.908 1.2031 13.9616C1.33419 14.0152 1.47465 14.0422 1.61628 14.041C1.75791 14.0397 1.89788 14.0103 2.02801 13.9544C2.15815 13.8985 2.27585 13.8173 2.37425 13.7154L0.865983 12.2071ZM7.48678 7.09457L8.24092 7.84871C8.44089 7.64868 8.55322 7.37742 8.55322 7.09457C8.55322 6.81173 8.44089 6.54047 8.24092 6.34044L7.48678 7.09457ZM2.37425 0.473775C2.27585 0.371897 2.15815 0.290635 2.02801 0.234732C1.89788 0.178829 1.75791 0.149404 1.61628 0.148173C1.47465 0.146943 1.33419 0.173932 1.2031 0.227565C1.07201 0.281198 0.952914 0.360401 0.852761 0.460553C0.752609 0.560706 0.673406 0.679801 0.619773 0.81089C0.56614 0.941979 0.539152 1.08244 0.540382 1.22407C0.541613 1.3657 0.571039 1.50567 0.626942 1.63581C0.682844 1.76594 0.764105 1.88364 0.865983 1.98204L2.37425 0.473775ZM2.37425 13.7154L8.24092 7.84871L6.73265 6.34044L0.865983 12.2071L2.37425 13.7154ZM8.24092 6.34044L2.37425 0.473775L0.865983 1.98204L6.73265 7.84871L8.24092 6.34044Z" fill="#B7B7B9"/>
</svg>
