<svg width="29" height="29" viewBox="0 0 29 29" fill="none" xmlns="http://www.w3.org/2000/svg">
<path d="M24.4003 14.3335C24.4003 15.5942 24.152 16.8426 23.6695 18.0073C23.1871 19.172 22.4799 20.2303 21.5885 21.1218C20.697 22.0132 19.6387 22.7203 18.474 23.2028C17.3093 23.6852 16.061 23.9335 14.8003 23.9335V28.2002C22.4589 28.2002 28.6669 21.9922 28.6669 14.3335H24.4003ZM14.8003 23.9335C12.2542 23.9335 9.81238 22.9221 8.01204 21.1218C6.21169 19.3214 5.20026 16.8796 5.20026 14.3335H0.933594C0.933594 21.9922 7.14159 28.2002 14.8003 28.2002V23.9335ZM5.20026 14.3335C5.20026 11.7874 6.21169 9.34565 8.01204 7.5453C9.81238 5.74495 12.2542 4.73353 14.8003 4.73353V0.466861C7.14159 0.466861 0.933594 6.67486 0.933594 14.3335H5.20026ZM14.8003 4.73353C16.061 4.73353 17.3093 4.98184 18.474 5.46428C19.6387 5.94673 20.697 6.65386 21.5885 7.5453C22.4799 8.43675 23.1871 9.49504 23.6695 10.6598C24.152 11.8245 24.4003 13.0728 24.4003 14.3335H28.6669C28.6669 6.67486 22.4589 0.466861 14.8003 0.466861V4.73353Z" fill="#2A73E6"/>
</svg>
