<svg width="41" height="40" viewBox="0 0 41 40" fill="none" xmlns="http://www.w3.org/2000/svg">
<path d="M0.749023 12.3078C0.749023 5.5103 6.25918 0.000148773 13.0567 0.000148773H27.8259C34.6235 0.000148773 40.1336 5.5103 40.1336 12.3078V27.0771C40.1336 33.8746 34.6235 39.3848 27.8259 39.3848H13.0567C6.25918 39.3848 0.749023 33.8746 0.749023 27.0771V12.3078Z" fill="#F14C3C"/>
<path d="M13.4635 28.8818H27.418C29.5533 28.8818 30.6167 27.8197 30.6167 25.7151V13.2412C30.6167 11.1366 29.5533 10.0744 27.418 10.0744H13.4635C11.3281 10.0744 10.2549 11.1268 10.2549 13.2412V25.7151C10.2549 27.8295 11.3281 28.8818 13.4635 28.8818ZM13.3097 27.2375C12.4001 27.2375 11.9004 26.7575 11.9004 25.8074V16.1729C11.9004 15.2338 12.4001 14.7428 13.3097 14.7428H27.5509C28.4617 14.7428 28.9712 15.2338 28.9712 16.1729V25.8074C28.9712 26.7575 28.4604 27.2375 27.5509 27.2375H13.3097ZM18.4481 18.4104H19.0512C19.4081 18.4104 19.5213 18.3083 19.5213 17.9514V17.3483C19.5213 16.9914 19.4093 16.8781 19.0512 16.8781H18.4481C18.0912 16.8781 17.9681 16.9901 17.9681 17.3483V17.9514C17.9681 18.3083 18.0912 18.4104 18.4481 18.4104ZM21.8401 18.4104H22.4432C22.8001 18.4104 22.9232 18.3083 22.9232 17.9514V17.3483C22.9232 16.9914 22.8001 16.8781 22.4432 16.8781H21.8401C21.4832 16.8781 21.3601 16.9901 21.3601 17.3483V17.9514C21.3601 18.3083 21.4832 18.4104 21.8401 18.4104ZM25.2321 18.4104H25.8352C26.1921 18.4104 26.3152 18.3083 26.3152 17.9514V17.3483C26.3152 16.9914 26.1921 16.8781 25.8352 16.8781H25.2321C24.8752 16.8781 24.762 16.9901 24.762 17.3483V17.9514C24.762 18.3083 24.8752 18.4104 25.2321 18.4104ZM15.0561 21.7508H15.6493C16.0173 21.7508 16.1293 21.6486 16.1293 21.2917V20.6886C16.1293 20.3317 16.0173 20.2295 15.6493 20.2295H15.0561C14.6893 20.2295 14.5761 20.3317 14.5761 20.6886V21.2917C14.5761 21.6486 14.6893 21.7508 15.0561 21.7508ZM18.4481 21.7508H19.0512C19.4081 21.7508 19.5213 21.6486 19.5213 21.2917V20.6886C19.5213 20.3317 19.4093 20.2295 19.0512 20.2295H18.4481C18.0912 20.2295 17.9681 20.3317 17.9681 20.6886V21.2917C17.9681 21.6486 18.0912 21.7508 18.4481 21.7508ZM21.8401 21.7508H22.4432C22.8001 21.7508 22.9232 21.6486 22.9232 21.2917V20.6886C22.9232 20.3317 22.8001 20.2295 22.4432 20.2295H21.8401C21.4832 20.2295 21.3601 20.3317 21.3601 20.6886V21.2917C21.3601 21.6486 21.4832 21.7508 21.8401 21.7508ZM25.2321 21.7508H25.8352C26.1921 21.7508 26.3152 21.6486 26.3152 21.2917V20.6886C26.3152 20.3317 26.1921 20.2295 25.8352 20.2295H25.2321C24.8752 20.2295 24.762 20.3317 24.762 20.6886V21.2917C24.762 21.6486 24.8752 21.7508 25.2321 21.7508ZM15.0561 25.1021H15.6493C16.0173 25.1021 16.1293 24.9901 16.1293 24.632V24.0289C16.1293 23.672 16.0173 23.5698 15.6493 23.5698H15.0561C14.6893 23.5698 14.5761 23.672 14.5761 24.0301V24.6332C14.5761 24.9901 14.6893 25.1021 15.0561 25.1021ZM18.4481 25.1021H19.0512C19.4081 25.1021 19.5213 24.9901 19.5213 24.632V24.0289C19.5213 23.672 19.4093 23.5698 19.0512 23.5698H18.4481C18.0912 23.5698 17.9681 23.672 17.9681 24.0301V24.6332C17.9681 24.9901 18.0912 25.1021 18.4481 25.1021ZM21.8401 25.1021H22.4432C22.8001 25.1021 22.9232 24.9901 22.9232 24.632V24.0289C22.9232 23.672 22.8001 23.5698 22.4432 23.5698H21.8401C21.4832 23.5698 21.3601 23.672 21.3601 24.0301V24.6332C21.3601 24.9901 21.4832 25.1021 21.8401 25.1021Z" fill="white"/>
</svg>
