<svg width="35" height="35" viewBox="0 0 35 35" fill="none" xmlns="http://www.w3.org/2000/svg">
<path d="M0.28418 11.0499C0.28418 5.15873 5.05965 0.383266 10.9508 0.383266H23.7508C29.642 0.383266 34.4175 5.15873 34.4175 11.0499V23.8499C34.4175 29.7411 29.642 34.5166 23.7508 34.5166H10.9508C5.05965 34.5166 0.28418 29.7411 0.28418 23.8499V11.0499Z" fill="#0C79FE"/>
<path d="M17.6008 26.2388C22.5416 26.2388 26.6323 22.1396 26.6323 17.2073C26.6323 12.2665 22.5331 8.17584 17.5923 8.17584C12.66 8.17584 8.56934 12.2665 8.56934 17.2073C8.56934 22.1396 12.6685 26.2388 17.6008 26.2388ZM12.9704 18.1641C12.8885 18.1662 12.807 18.1515 12.7308 18.1211C12.6547 18.0907 12.5856 18.0451 12.5276 17.9872C12.4697 17.9292 12.4241 17.8601 12.3937 17.7839C12.3632 17.7078 12.3486 17.6263 12.3507 17.5444C12.3507 17.1988 12.6163 16.9332 12.9693 16.9332H16.98V11.5764C16.98 11.2308 17.2467 10.9652 17.5923 10.9652C17.6733 10.9637 17.7537 10.9785 17.829 11.0086C17.9042 11.0388 17.9726 11.0836 18.0302 11.1406C18.0879 11.1975 18.1336 11.2654 18.1646 11.3402C18.1956 11.4151 18.2114 11.4954 18.2109 11.5764V17.5444C18.2121 17.6259 18.1969 17.7069 18.1662 17.7825C18.1355 17.8581 18.09 17.9267 18.0323 17.9844C17.9746 18.0421 17.906 18.0876 17.8304 18.1183C17.7548 18.149 17.6738 18.1642 17.5923 18.163L12.9704 18.1641Z" fill="white"/>
</svg>
