<svg width="24" height="24" viewBox="0 0 24 24" fill="none" xmlns="http://www.w3.org/2000/svg">
<path d="M19.7044 11.136C20.0989 11.652 20.0989 12.3487 19.7044 12.8639C18.4618 14.486 15.4805 17.8261 11.9998 17.8261C8.51909 17.8261 5.53779 14.486 4.29516 12.8639C4.10322 12.6168 3.99902 12.3128 3.99902 11.9999C3.99902 11.6871 4.10322 11.3831 4.29516 11.136C5.53779 9.51386 8.51909 6.17383 11.9998 6.17383C15.4805 6.17383 18.4618 9.51386 19.7044 11.136V11.136Z" stroke="#999999" stroke-linecap="round" stroke-linejoin="round"/>
<path d="M11.9998 14.4967C13.3788 14.4967 14.4967 13.3788 14.4967 11.9998C14.4967 10.6208 13.3788 9.50293 11.9998 9.50293C10.6208 9.50293 9.50293 10.6208 9.50293 11.9998C9.50293 13.3788 10.6208 14.4967 11.9998 14.4967Z" stroke="#999999" stroke-linecap="round" stroke-linejoin="round"/>
<path d="M19 5L5 19" stroke="#999999" stroke-linecap="round" stroke-linejoin="round"/>
</svg>
