<svg width="27" height="28" viewBox="0 0 27 28" fill="none" xmlns="http://www.w3.org/2000/svg">
<circle cx="13.6126" cy="14.0955" r="13.3333" fill="#0D1628"/>
<path d="M10.8181 13.5845C10.6455 13.383 10.4 13.2582 10.1354 13.2377C9.87086 13.2172 9.609 13.3026 9.40744 13.4752C9.20587 13.6478 9.08111 13.8933 9.06061 14.1579C9.04011 14.4224 9.12554 14.6843 9.2981 14.8859L10.8181 13.5845ZM12.2221 16.7619L11.4621 17.4125L12.1928 18.2632L12.9554 17.4419L12.2221 16.7619ZM17.9021 12.1085C18.0824 11.914 18.1781 11.6559 18.1681 11.3908C18.1581 11.1258 18.0432 10.8755 17.8487 10.6952C17.6543 10.5149 17.3961 10.4192 17.131 10.4292C16.866 10.4392 16.6158 10.554 16.4354 10.7485L17.9021 12.1085ZM9.2981 14.8859L11.4634 17.4125L12.9821 16.1112L10.8181 13.5845L9.2981 14.8859ZM12.9554 17.4419L17.9021 12.1085L16.4354 10.7485L11.4888 16.0819L12.9554 17.4419Z" fill="white"/>
</svg>
