<svg width="29" height="28" viewBox="0 0 29 28" fill="none" xmlns="http://www.w3.org/2000/svg">
<path d="M24.4003 14.1333C24.4003 15.394 24.152 16.6424 23.6695 17.8071C23.1871 18.9718 22.4799 20.0301 21.5885 20.9216C20.697 21.813 19.6387 22.5201 18.474 23.0026C17.3093 23.485 16.061 23.7333 14.8003 23.7333V28C22.4589 28 28.6669 21.792 28.6669 14.1333H24.4003ZM14.8003 23.7333C12.2542 23.7333 9.81238 22.7219 8.01204 20.9216C6.21169 19.1212 5.20026 16.6794 5.20026 14.1333H0.933594C0.933594 21.792 7.14159 28 14.8003 28V23.7333ZM5.20026 14.1333C5.20026 11.5873 6.21169 9.14546 8.01204 7.34511C9.81238 5.54476 12.2542 4.53333 14.8003 4.53333V0.266665C7.14159 0.266665 0.933594 6.47467 0.933594 14.1333H5.20026ZM14.8003 4.53333C16.061 4.53333 17.3093 4.78164 18.474 5.26409C19.6387 5.74653 20.697 6.45367 21.5885 7.34511C22.4799 8.23655 23.1871 9.29485 23.6695 10.4596C24.152 11.6243 24.4003 12.8726 24.4003 14.1333H28.6669C28.6669 6.47467 22.4589 0.266665 14.8003 0.266665V4.53333Z" fill="#B7B7B9"/>
</svg>
