<svg width="15" height="17" viewBox="0 0 15 17" fill="none" xmlns="http://www.w3.org/2000/svg">
<path d="M2.43704 3.6502H12.3933V2.22833H2.43704V3.6502ZM12.3933 3.6502C12.5818 3.65048 12.7625 3.72556 12.8957 3.85896C13.0289 3.99235 13.1037 4.17315 13.1037 4.36166H14.5266C14.5266 3.79587 14.3019 3.25325 13.9018 2.85317C13.5017 2.45309 12.9591 2.22833 12.3933 2.22833V3.6502ZM13.1037 4.36166V14.3169H14.5266V4.36166H13.1037ZM13.1037 14.3169C13.1037 14.5054 13.0289 14.6862 12.8957 14.8196C12.7625 14.953 12.5818 15.028 12.3933 15.0283V16.4502C12.9591 16.4502 13.5017 16.2254 13.9018 15.8254C14.3019 15.4253 14.5266 14.8827 14.5266 14.3169H13.1037ZM12.3933 15.0283H2.43704V16.4502H12.3933V15.0283ZM2.43704 15.0283C2.24854 15.028 2.06785 14.953 1.93465 14.8196C1.80146 14.6862 1.72664 14.5054 1.72664 14.3169H0.303711C0.303711 14.8827 0.528472 15.4253 0.92855 15.8254C1.32863 16.2254 1.87125 16.4502 2.43704 16.4502V15.0283ZM1.72664 14.3169V4.36166H0.303711V14.3169H1.72664ZM1.72664 4.36166C1.72664 3.96913 2.04451 3.6502 2.43704 3.6502V2.22833C1.87125 2.22833 1.32863 2.45309 0.92855 2.85317C0.528472 3.25325 0.303711 3.79587 0.303711 4.36166H1.72664Z" fill="#8E8E92"/>
<path d="M10.9718 1.51649C10.9718 1.32779 10.8968 1.14683 10.7634 1.0134C10.63 0.879979 10.449 0.805021 10.2603 0.805021C10.0716 0.805021 9.89064 0.879979 9.75721 1.0134C9.62379 1.14683 9.54883 1.32779 9.54883 1.51649H10.9718ZM9.54883 4.36129C9.54883 4.54998 9.62379 4.73094 9.75721 4.86437C9.89064 4.9978 10.0716 5.07275 10.2603 5.07275C10.449 5.07275 10.63 4.9978 10.7634 4.86437C10.8968 4.73094 10.9718 4.54998 10.9718 4.36129H9.54883ZM9.54883 1.51649V4.36129H10.9718V1.51649H9.54883Z" fill="#8E8E92"/>
<path d="M5.28231 1.51649C5.28231 1.32779 5.20735 1.14683 5.07392 1.0134C4.9405 0.879979 4.75953 0.805021 4.57084 0.805021C4.38215 0.805021 4.20118 0.879979 4.06776 1.0134C3.93433 1.14683 3.85938 1.32779 3.85938 1.51649H5.28231ZM3.85938 4.36129C3.85938 4.54998 3.93433 4.73094 4.06776 4.86437C4.20118 4.9978 4.38215 5.07275 4.57084 5.07275C4.75953 5.07275 4.9405 4.9978 5.07392 4.86437C5.20735 4.73094 5.28231 4.54998 5.28231 4.36129H3.85938ZM3.85938 1.51649V4.36129H5.28231V1.51649H3.85938Z" fill="#8E8E92"/>
<path d="M1.01547 6.49464C0.831681 6.50176 0.657793 6.57977 0.530281 6.71232C0.40277 6.84487 0.331543 7.02165 0.331543 7.20557C0.331543 7.38949 0.40277 7.56627 0.530281 7.69882C0.657793 7.83137 0.831681 7.90938 1.01547 7.9165V6.49464ZM13.8155 7.9165C13.9993 7.90938 14.1731 7.83137 14.3007 7.69882C14.4282 7.56627 14.4994 7.38949 14.4994 7.20557C14.4994 7.02165 14.4282 6.84487 14.3007 6.71232C14.1731 6.57977 13.9993 6.50176 13.8155 6.49464V7.9165ZM1.01547 7.9165H13.8155V6.49464H1.01547V7.9165Z" fill="#8E8E92"/>
</svg>
