<svg width="24" height="19" viewBox="0 0 24 19" fill="none" xmlns="http://www.w3.org/2000/svg">
<path fill-rule="evenodd" clip-rule="evenodd" d="M1.56674 2.06192C1.60714 2.09122 1.64545 2.1233 1.6814 2.15792L10.0667 10.1726C10.6621 10.7415 11.4539 11.0589 12.2774 11.0589C13.1009 11.0589 13.8926 10.7415 14.488 10.1726L16.052 8.67924C16.0667 8.66413 16.0818 8.64946 16.0974 8.63524L22.8734 2.15792C22.9085 2.12431 22.946 2.09313 22.9854 2.06459C22.6881 1.6604 22.3 1.33187 21.8522 1.10556C21.4045 0.87925 20.9097 0.76153 20.408 0.761924H4.1414C3.64038 0.761641 3.14632 0.879151 2.69908 1.10497C2.25184 1.33079 1.86396 1.65859 1.56674 2.06192ZM23.608 4.40725L18.4187 9.36724L23.608 13.6206V4.40725ZM16.8654 10.8526L15.9627 11.7152C14.9703 12.6639 13.6503 13.1933 12.2774 13.1933C10.9045 13.1933 9.58446 12.6639 8.59205 11.7152L7.68806 10.8512L1.20274 16.1646C1.45059 16.7381 1.86093 17.2266 2.38314 17.5697C2.90535 17.9127 3.51657 18.0954 4.1414 18.0952H20.408C21.033 18.0953 21.6443 17.9124 22.1666 17.5691C22.6888 17.2258 23.099 16.737 23.3467 16.1632L16.8654 10.8526ZM6.13473 9.3659L0.941406 4.40191V13.6219L6.13473 9.3659Z" fill="#111A18"/>
</svg>
