<svg width="17" height="17" viewBox="0 0 17 17" fill="none" xmlns="http://www.w3.org/2000/svg">
<path d="M14.8152 8.62833C14.8152 10.3257 14.1409 11.9536 12.9407 13.1538C11.7405 14.354 10.1126 15.0283 8.41522 15.0283V16.4502C10.4897 16.4502 12.4792 15.6261 13.9461 14.1592C15.413 12.6923 16.2371 10.7028 16.2371 8.62833H14.8152ZM8.41522 15.0283C6.71783 15.0283 5.08997 14.354 3.88973 13.1538C2.6895 11.9536 2.01522 10.3257 2.01522 8.62833H0.592285C0.592285 9.6556 0.794639 10.6728 1.18779 11.6219C1.58094 12.5709 2.15719 13.4333 2.88363 14.1596C3.61007 14.8859 4.47248 15.4621 5.42159 15.8551C6.37071 16.2481 7.38795 16.4503 8.41522 16.4502V15.0283ZM2.01522 8.62833C2.01522 6.93094 2.6895 5.30308 3.88973 4.10284C5.08997 2.90261 6.71783 2.22833 8.41522 2.22833V0.806461C7.38795 0.806321 6.37071 1.00854 5.42159 1.40156C4.47248 1.79458 3.61007 2.37071 2.88363 3.09706C2.15719 3.8234 1.58094 4.68572 1.18779 5.63478C0.794639 6.58384 0.592285 7.60106 0.592285 8.62833H2.01522ZM8.41522 2.22833C10.1126 2.22833 11.7405 2.90261 12.9407 4.10284C14.1409 5.30308 14.8152 6.93094 14.8152 8.62833H16.2371C16.2371 6.55384 15.413 4.56432 13.9461 3.09743C12.4792 1.63055 10.4897 0.806461 8.41522 0.806461V2.22833Z" fill="#D97C7D"/>
<path d="M9.12703 4.36161C9.12703 4.17292 9.05208 3.99196 8.91865 3.85853C8.78523 3.7251 8.60426 3.65015 8.41557 3.65015C8.22688 3.65015 8.04591 3.7251 7.91249 3.85853C7.77906 3.99196 7.7041 4.17292 7.7041 4.36161H9.12703ZM8.41557 8.62828H7.7041C7.7041 8.89815 7.85663 9.14348 8.0977 9.26401L8.41557 8.62828ZM10.9425 10.6869C11.0263 10.7315 11.1182 10.7587 11.2128 10.7672C11.3073 10.7756 11.4026 10.7651 11.493 10.7362C11.5834 10.7072 11.6671 10.6605 11.7391 10.5988C11.8112 10.537 11.8702 10.4614 11.9126 10.3765C11.955 10.2916 11.98 10.1991 11.9861 10.1044C11.9922 10.0096 11.9793 9.91466 11.9482 9.825C11.917 9.73535 11.8682 9.65283 11.8047 9.58232C11.7412 9.51181 11.6642 9.45472 11.5782 9.41441L10.9425 10.6869ZM7.7041 4.36161V8.62828H9.12703V4.36161H7.7041ZM8.0977 9.26401L10.9425 10.6869L11.5782 9.41441L8.73343 7.99255L8.0977 9.26401Z" fill="#D97C7D"/>
</svg>
