<svg width="29" height="29" viewBox="0 0 29 29" fill="none" xmlns="http://www.w3.org/2000/svg">
<path d="M24.4003 14.5332C24.4003 15.7939 24.152 17.0423 23.6695 18.207C23.1871 19.3717 22.4799 20.43 21.5885 21.3215C20.697 22.2129 19.6387 22.92 18.474 23.4025C17.3093 23.8849 16.061 24.1332 14.8003 24.1332V28.3999C22.4589 28.3999 28.6669 22.1919 28.6669 14.5332H24.4003ZM14.8003 24.1332C12.2542 24.1332 9.81238 23.1218 8.01204 21.3215C6.21169 19.5211 5.20026 17.0793 5.20026 14.5332H0.933594C0.933594 22.1919 7.14159 28.3999 14.8003 28.3999V24.1332ZM5.20026 14.5332C5.20026 11.9872 6.21169 9.54536 8.01204 7.74501C9.81238 5.94466 12.2542 4.93323 14.8003 4.93323V0.666568C7.14159 0.666568 0.933594 6.87457 0.933594 14.5332H5.20026ZM14.8003 4.93323C16.061 4.93323 17.3093 5.18154 18.474 5.66399C19.6387 6.14644 20.697 6.85357 21.5885 7.74501C22.4799 8.63645 23.1871 9.69475 23.6695 10.8595C24.152 12.0242 24.4003 13.2725 24.4003 14.5332H28.6669C28.6669 6.87457 22.4589 0.666568 14.8003 0.666568V4.93323Z" fill="#E69340"/>
</svg>
