<svg width="26" height="18" viewBox="0 0 26 18" fill="none" xmlns="http://www.w3.org/2000/svg">
<path d="M1.94746 9.31532L0.899463 8.49132L0.251465 9.31532L0.899463 10.1393L1.94746 9.31532ZM24.1701 9.31532L25.2181 10.1393L25.8647 9.31532L25.2181 8.49132L24.1701 9.31532ZM1.94746 9.31532L2.99546 10.1393C2.99589 10.1389 2.99634 10.1384 2.99679 10.138C3.01301 10.1174 3.02945 10.0969 3.04612 10.0767L3.21679 9.86999C4.15459 8.76508 5.17966 7.73733 6.28212 6.79666C8.32478 5.06333 10.7848 3.578 13.0581 3.578V0.911341C9.77678 0.911341 6.68212 2.96067 4.55679 4.76333C3.26111 5.8691 2.06292 7.08424 0.975463 8.39532C0.949949 8.42673 0.924616 8.45962 0.899463 8.49132L1.94746 9.31532ZM13.0581 3.578C15.3314 3.578 17.7928 5.06466 19.8354 6.79666C21.0054 7.79596 22.088 8.89327 23.0714 10.0767C23.088 10.097 23.1044 10.1175 23.1207 10.138L24.1701 9.31532L25.2181 8.49132L25.2154 8.48866C25.191 8.45714 25.1661 8.42602 25.1407 8.39532C25.0941 8.33799 25.0274 8.25532 24.9407 8.15266C23.9071 6.93382 22.7767 5.80037 21.5607 4.76333C19.4354 2.96067 16.3408 0.910007 13.0581 0.910007V3.57667V3.578ZM1.94746 9.31532C1.59734 9.58898 1.248 9.86365 0.899463 10.1393C0.906829 10.1488 0.914387 10.1581 0.92213 10.1673C1.00505 10.2725 1.08995 10.376 1.1768 10.478C2.21054 11.6964 3.34087 12.8294 4.55679 13.866C6.68212 15.67 9.77678 17.7193 13.0581 17.7193V15.0526C10.7848 15.0526 8.32478 13.566 6.28212 11.834C5.11213 10.8347 4.02954 9.73737 3.04612 8.55399C3.02958 8.53362 3.01314 8.51318 2.99679 8.49266L2.99546 8.49132L1.94746 9.31532ZM13.0581 17.7193C16.3408 17.7193 19.4354 15.67 21.5594 13.8673C22.8551 12.7615 24.0533 11.5464 25.1407 10.2353C25.1644 10.2066 25.188 10.1777 25.2114 10.1487L25.2154 10.142L25.2167 10.1407C25.2167 10.1393 25.2181 10.1393 24.1701 9.31532L23.1221 8.49132L23.1207 8.49266C23.1045 8.51327 23.0881 8.53371 23.0714 8.55399C22.8 8.88312 22.5199 9.20501 22.2314 9.51932C21.4811 10.3394 20.6809 11.1124 19.8354 11.834C17.7928 13.5673 15.3314 15.0526 13.0581 15.0526V17.7193Z" fill="#B5B5B5"/>
<path d="M13.7235 9.31667C13.7235 9.49348 13.6533 9.66304 13.5283 9.78807C13.4032 9.91309 13.2337 9.98333 13.0569 9.98333V15.3167C14.6482 15.3167 16.1743 14.6845 17.2995 13.5593C18.4247 12.4341 19.0569 10.908 19.0569 9.31667H13.7235ZM13.0569 9.98333C12.8801 9.98333 12.7105 9.91309 12.5855 9.78807C12.4604 9.66304 12.3902 9.49348 12.3902 9.31667H7.05688C7.05688 10.908 7.68902 12.4341 8.81424 13.5593C9.93946 14.6845 11.4656 15.3167 13.0569 15.3167V9.98333ZM12.3902 9.31667C12.3902 9.13985 12.4604 8.97029 12.5855 8.84526C12.7105 8.72024 12.8801 8.65 13.0569 8.65V3.31668C11.4656 3.31668 9.93946 3.94882 8.81424 5.07403C7.68902 6.19925 7.05688 7.72537 7.05688 9.31667H12.3902ZM13.0569 8.65C13.2337 8.65 13.4032 8.72024 13.5283 8.84526C13.6533 8.97029 13.7235 9.13985 13.7235 9.31667H19.0569C19.0569 7.72537 18.4247 6.19925 17.2995 5.07403C16.1743 3.94882 14.6482 3.31668 13.0569 3.31668V8.65Z" fill="#B5B5B5"/>
</svg>
