<svg width="18" height="18" viewBox="0 0 18 18" fill="none" xmlns="http://www.w3.org/2000/svg">
<path d="M10.4002 1.73334C10.4002 1.45044 10.2878 1.17913 10.0878 0.979088C9.88772 0.77905 9.61641 0.66667 9.33351 0.66667C9.05061 0.66667 8.7793 0.77905 8.57927 0.979088C8.37923 1.17913 8.26685 1.45044 8.26685 1.73334H10.4002ZM8.26685 16.6667C8.26685 16.9496 8.37923 17.2209 8.57927 17.4209C8.7793 17.621 9.05061 17.7333 9.33351 17.7333C9.61641 17.7333 9.88772 17.621 10.0878 17.4209C10.2878 17.2209 10.4002 16.9496 10.4002 16.6667H8.26685ZM8.26685 1.73334V16.6667H10.4002V1.73334H8.26685Z" fill="white"/>
<path d="M1.86672 8.13333C1.58382 8.13333 1.31251 8.24571 1.11247 8.44575C0.912429 8.64579 0.800049 8.9171 0.800049 9.2C0.800049 9.48289 0.912429 9.7542 1.11247 9.95424C1.31251 10.1543 1.58382 10.2667 1.86672 10.2667V8.13333ZM16.8 10.2667C17.0829 10.2667 17.3543 10.1543 17.5543 9.95424C17.7543 9.7542 17.8667 9.48289 17.8667 9.2C17.8667 8.9171 17.7543 8.64579 17.5543 8.44575C17.3543 8.24571 17.0829 8.13333 16.8 8.13333V10.2667ZM1.86672 10.2667H16.8V8.13333H1.86672V10.2667Z" fill="white"/>
</svg>
