<svg width="29" height="28" viewBox="0 0 29 28" fill="none" xmlns="http://www.w3.org/2000/svg">
<path d="M24.4003 13.9331C24.4003 15.1938 24.152 16.4422 23.6695 17.6069C23.1871 18.7716 22.4799 19.8299 21.5885 20.7214C20.697 21.6128 19.6387 22.3199 18.474 22.8024C17.3093 23.2848 16.061 23.5331 14.8003 23.5331V27.7998C22.4589 27.7998 28.6669 21.5918 28.6669 13.9331H24.4003ZM14.8003 23.5331C12.2542 23.5331 9.81238 22.5217 8.01204 20.7214C6.21169 18.921 5.20026 16.4792 5.20026 13.9331H0.933594C0.933594 21.5918 7.14159 27.7998 14.8003 27.7998V23.5331ZM5.20026 13.9331C5.20026 11.3871 6.21169 8.94526 8.01204 7.14491C9.81238 5.34456 12.2542 4.33314 14.8003 4.33314V0.0664699C7.14159 0.0664699 0.933594 6.27447 0.933594 13.9331H5.20026ZM14.8003 4.33314C16.061 4.33314 17.3093 4.58145 18.474 5.06389C19.6387 5.54634 20.697 6.25347 21.5885 7.14491C22.4799 8.03636 23.1871 9.09465 23.6695 10.2594C24.152 11.4241 24.4003 12.6724 24.4003 13.9331H28.6669C28.6669 6.27447 22.4589 0.0664699 14.8003 0.0664699V4.33314Z" fill="#D97C7D"/>
</svg>
