<svg width="22" height="22" viewBox="0 0 22 22" fill="none" xmlns="http://www.w3.org/2000/svg">
<path d="M17.2669 10.2003C17.2669 12.1806 16.4802 14.0798 15.0799 15.48C13.6797 16.8803 11.7805 17.667 9.8002 17.667V19.8003C12.3463 19.8003 14.7881 18.7889 16.5884 16.9885C18.3888 15.1882 19.4002 12.7464 19.4002 10.2003H17.2669ZM9.8002 17.667C7.81991 17.667 5.92074 16.8803 4.52046 15.48C3.12019 14.0798 2.33353 12.1806 2.33353 10.2003H0.200195C0.200195 12.7464 1.21162 15.1882 3.01197 16.9885C4.81232 18.7889 7.25412 19.8003 9.8002 19.8003V17.667ZM2.33353 10.2003C2.33353 8.22001 3.12019 6.32083 4.52046 4.92056C5.92074 3.52029 7.81991 2.73363 9.8002 2.73363V0.600292C7.25412 0.600292 4.81232 1.61172 3.01197 3.41207C1.21162 5.21242 0.200195 7.65421 0.200195 10.2003H2.33353ZM9.8002 2.73363C11.7805 2.73363 13.6797 3.52029 15.0799 4.92056C16.4802 6.32083 17.2669 8.22001 17.2669 10.2003H19.4002C19.4002 7.65421 18.3888 5.21242 16.5884 3.41207C14.7881 1.61172 12.3463 0.600292 9.8002 0.600292V2.73363Z" fill="#0D1628"/>
<path d="M19.7129 21.6206C19.8113 21.7225 19.929 21.8038 20.0591 21.8597C20.1892 21.9156 20.3292 21.945 20.4708 21.9462C20.6125 21.9475 20.7529 21.9205 20.884 21.8669C21.0151 21.8132 21.1342 21.734 21.2344 21.6339C21.3345 21.5337 21.4137 21.4146 21.4673 21.2835C21.521 21.1524 21.548 21.012 21.5467 20.8704C21.5455 20.7287 21.5161 20.5888 21.4602 20.4586C21.4043 20.3285 21.323 20.2108 21.2211 20.1124L19.7129 21.6206ZM16.5811 15.4724C16.38 15.2781 16.1105 15.1706 15.8308 15.173C15.5512 15.1754 15.2836 15.2876 15.0859 15.4854C14.8881 15.6831 14.7759 15.9507 14.7735 16.2304C14.771 16.51 14.8786 16.7795 15.0729 16.9806L16.5811 15.4724ZM21.2211 20.1124L16.5811 15.4724L15.0729 16.9806L19.7129 21.6206L21.2211 20.1124Z" fill="#0D1628"/>
</svg>
